<svg xmlns="http://www.w3.org/2000/svg" viewBox="0 0 512 512">
  <path
    fill="#000000"
    d="M123 77h266c34 0 46 12 46 46v266c0 34-12 46-46 46H123c-34 0-46-12-46-46V123c0-34 12-46 46-46Zm82 109c-12 0-22 10-22 22 0 5 2 10 5 14l45 56v91c0 13 10 23 23 23s23-10 23-23v-91l45-56c3-4 5-9 5-14 0-12-10-22-22-22-7 0-13 3-17 8l-34 43-34-43c-4-5-10-8-17-8Zm134 74c-12 0-21 9-21 21 0 12 9 21 21 21 18 0 32 14 32 32s-14 32-32 32c-12 0-21 9-21 21 0 12 9 21 21 21 41 0 74-33 74-74s-33-74-74-74Zm24-76c-18 0-32 14-32 32s14 32 32 32 32-14 32-32-14-32-32-32Z"
  />
</svg>
